<svg xmlns="http://www.w3.org/2000/svg" viewBox="0 160.7 595.3 519.9" xml:space="preserve">
    <g style="stroke-width:8;stroke-miterlimit:4;stroke-dasharray:none;paint-order:stroke fill markers;stroke-linecap:round" fill="#ffffff">
        <path d="M312.5 623.5s1.7-53.5 35.7-72.2c0 0 35.6 35.7-35.7 72.2m0 0s4.2 69.6 74.7 55.2c.9 0 3.4-28-74.7-55.2m65.4-6.8s-14.4-48.4 10.2-82.4c0 0 39.9 36.5-10.2 82.4m0 0s7.6 55.2 84.9 35.7c.9-.1 11-37.4-84.9-35.7m54.3-28.9s37.4 57.7 89.2 6.8c0 0-19.5-29.7-89.2-6.8m0 0s-29.7-14.4-11.9-80.7c.9 0 52.7 27.2 11.9 80.7m45-45.8s-18.7-1.7-27.2-23.8c-4.2-10.2-5.1-26.3-5.1-45.9 0 0 23.8.8 34.8 21.2 5.2 11.1 12.8 26.4-2.5 48.5" style="stroke-width:8;stroke-miterlimit:4;stroke-dasharray:none;paint-order:stroke fill markers;stroke-linecap:round"/>
        <path d="M477.2 542s4.2 17.8 23.8 20.4c11.9 1.7 34 .8 49.3-10.2 18.7-13.6 19.5-27.2 19.5-27.2s-22.9-8.5-47.6 0c-11.8 4.2-27.1 10.2-45 17m33.2-51s51.8-55.2 84.1-43.3c.8 0-14.5 75.6-84.1 43.3m0 0s-39.1-6.8-49.3-60.3c0 .9 57.8 3.4 49.3 60.3m19.5-55.2s18.7-62 62.8-68.8c-.8 0 16.2 64.6-62.8 68.8m0 0s-56-7.6-66.2-47.6c0 .1 49.2-12.7 66.2 47.6m5.9-64.5S516.3 322 574 291.5c.1-.1 22.1 60.2-38.2 79.8m0 0s-73 17-87.5-28.9c.1 0 41.7-27.2 87.5 28.9m-23.7-58.6s-21.2-57.7 17.8-93.4c0 0 43.3 62.8-17.8 93.4m0 0s-41.6-45-86.6-3.4c-.1 0 40.7 26.3 86.6 3.4m-34.9-51.8s-39.1-42.5-5.1-100.2c0 0 53.5 68.8 5.1 100.2m-43.3-33.1s1.7-56-75.6-59.4c.1-.1-1.6 58.5 75.6 59.4m-152 395.7s-1.7-53.5-35.7-72.2c.1 0-34.8 35.7 35.7 72.2m0 0s-4.2 69.6-74.7 55.2c0 0-3.4-28 74.7-55.2m-65.4-6.8s14.4-48.4-10.2-82.4c.9 0-39 36.5 10.2 82.4m0 0s-7.6 55.2-84.9 35.7c0-.1-11-37.4 84.9-35.7m-54.3-28.9s-37.4 57.7-89.2 6.8c0 0 20.4-29.7 89.2-6.8m0 0s29.7-14.4 11.9-80.7c0 0-51.8 27.2-11.9 80.7M118 542s18.7-1.7 27.2-23.8c4.2-10.2 5.1-26.3 5.1-45.9 0 0-23.8.8-34.8 21.2-6 11.1-12.7 26.4 2.5 48.5m0 0s-4.2 17.8-23.8 20.4c-11.9 1.7-34 .8-49.3-10.2C26.3 537.7 25.5 525 25.5 525s22.9-8.5 47.6 0c11.8 4.2 26.3 10.2 44.9 17m-33.9-51S32.3 435.8 0 447.7c0 0 15.3 75.6 84.1 43.3m0 0s39.1-6.8 49.3-60.3c.8.9-57 3.4-49.3 60.3m-18.7-55.2s-18.7-62-62.8-68.8c-.1 0-17 64.6 62.8 68.8m0 0s56-7.6 66.2-47.6c0 .1-50.1-12.7-66.2 47.6m-6.8-64.5s19.5-49.3-38.2-79.8c0-.1-21.2 60.2 38.2 79.8m0 0s73 17 87.5-28.9c0 0-41.7-27.2-87.5 28.9m24.6-58.6s21.2-57.7-17.8-93.4c0 0-44.2 62.8 17.8 93.4m0 0s41.6-45 86.6-3.4c0 0-41.6 26.3-86.6 3.4m34.8-51.8s39.1-42.5 5.1-100.2c0 0-53.5 68.8-5.1 100.2m0 2.2s32.9-38.9 81.7 10c.2 0-44.7 25.8-81.7-10m43.3-35.3s-1.7-56 75.6-59.4c0-.1.9 58.5-75.6 59.4M477.2 263s-32.8-38.8-81.5 10c0 0 44.7 25.8 81.5-10" style="stroke-width:8;stroke-miterlimit:4;stroke-dasharray:none;paint-order:stroke fill markers;stroke-linecap:round"/>
    </g>
    <path style="fill:none;stroke:#ffffff;stroke-width:8;stroke-linecap:butt;stroke-linejoin:miter;stroke-opacity:1;stroke-miterlimit:4;stroke-dasharray:none" d="M312.5 623.5h-30.6S197.303 644.871 118 542 58.6 371.3 58.6 371.3s24.076-99.426 102.7-143.5 50.761-28.595 50.761-28.595"/>
    <path style="fill:none;stroke:#ffffff;stroke-width:8;stroke-linecap:butt;stroke-linejoin:miter;stroke-miterlimit:4;stroke-dasharray:none;stroke-opacity:1" d="M281.9 623.5h30.6s84.597 21.371 163.9-81.5 59.4-170.7 59.4-170.7-24.076-99.426-102.7-143.5-50.761-28.595-50.761-28.595"/>
</svg>